<svg width="100" height="97" viewBox="0 0 100 97" fill="none" xmlns="http://www.w3.org/2000/svg">
<path fill-rule="evenodd" clip-rule="evenodd" d="M25.5434 36.2074C28.0367 38.3396 28.3294 42.0894 26.1971 44.5827L16.0183 56.4849L25.8074 65.787C28.1857 68.0469 28.2816 71.8069 26.0217 74.1851C23.7618 76.5633 20.0018 76.6592 17.6236 74.3993L3.74819 61.2143C1.45759 59.0377 1.27188 55.4488 3.32558 53.0473L17.1681 36.8611C19.3003 34.3678 23.0501 34.0751 25.5434 36.2074Z" fill="#2B68FF"/>
<path fill-rule="evenodd" clip-rule="evenodd" d="M64.8881 35.991C62.4863 38.2258 62.3508 41.9845 64.5856 44.3864L75.6275 56.2539L65.0402 65.5848C62.579 67.7539 62.3422 71.5076 64.5113 73.9689C66.6805 76.4302 70.4342 76.667 72.8955 74.4978L88.0612 61.1318C89.264 60.0718 89.9872 58.5706 90.0665 56.9693C90.1459 55.368 89.5746 53.8027 88.4825 52.6289L73.2835 36.2935C71.0487 33.8917 67.29 33.7562 64.8881 35.991Z" fill="#2B68FF"/>
<path fill-rule="evenodd" clip-rule="evenodd" d="M52.0393 6.73164C55.2833 7.22132 57.5161 10.248 57.0264 13.492L45.496 89.8762C45.0063 93.1202 41.9796 95.353 38.7356 94.8633C35.4916 94.3736 33.2588 91.3469 33.7485 88.1029L45.2789 11.7187C45.7686 8.47474 48.7953 6.24195 52.0393 6.73164Z" fill="#2B68FF"/>
</svg>
