<svg width="100" height="66" viewBox="0 0 100 66" fill="none" xmlns="http://www.w3.org/2000/svg">
<path fill-rule="evenodd" clip-rule="evenodd" d="M64.4384 0.0921853C60.7746 0.0224105 57.7479 2.93596 57.6781 6.59977C57.6084 10.2636 60.5219 13.2903 64.1857 13.36L77.0621 13.6053L52.0732 38.5679L40.0674 26.0959C38.8348 24.8155 37.1401 24.0831 35.363 24.0628C33.5858 24.0425 31.8748 24.7359 30.6133 25.9879L2.08616 54.2982C-0.514883 56.8795 -0.530909 61.0806 2.05037 63.6816C4.63164 66.2827 8.83274 66.2987 11.4338 63.7174L35.1791 40.1526L47.2003 52.6406C48.4355 53.9237 50.1346 54.6564 51.9156 54.6738C53.6966 54.6913 55.4098 53.992 56.6698 52.7332L86.2153 23.2188L85.983 35.4154C85.9132 39.0792 88.8268 42.1059 92.4906 42.1756C96.1544 42.2454 99.1811 39.3319 99.2508 35.6681L99.7892 7.40175C99.8589 3.73793 96.9454 0.711258 93.2816 0.641483L64.4384 0.0921853Z" fill="#2B68FF"/>
</svg>
