<svg width="80" height="77" viewBox="0 0 80 77" fill="none" xmlns="http://www.w3.org/2000/svg">
<path d="M34.3907 3.85684C36.8023 -1.00623 43.7388 -1.00622 46.1504 3.85685L53.3481 18.3711C54.3056 20.302 56.1502 21.6397 58.283 21.95L74.3392 24.286C79.7299 25.0703 81.8738 31.7011 77.9627 35.4929L66.3936 46.7091C64.8369 48.2183 64.126 50.399 64.4942 52.5357L67.2284 68.4042C68.1516 73.7619 62.5336 77.8546 57.7169 75.3333L43.3143 67.7942C41.4078 66.7962 39.1333 66.7962 37.2268 67.7942L22.8242 75.3333C18.0075 77.8546 12.3894 73.7619 13.3126 68.4042L16.0469 52.5357C16.4151 50.399 15.7042 48.2184 14.1475 46.7091L2.57838 35.4929C-1.33273 31.7011 0.811193 25.0703 6.20187 24.286L22.2581 21.95C24.3909 21.6397 26.2355 20.302 27.193 18.3711L34.3907 3.85684Z" fill="#2B68FF"/>
</svg>
